<svg width="32" height="32" viewBox="0 0 32 32" xmlns="http://www.w3.org/2000/svg">
  <!-- Shield background -->
  <defs>
    <linearGradient id="shieldGradient" x1="0%" y1="0%" x2="0%" y2="100%">
      <stop offset="0%" style="stop-color:#1e40af;stop-opacity:1" />
      <stop offset="100%" style="stop-color:#1e3a8a;stop-opacity:1" />
    </linearGradient>
  </defs>
  
  <!-- Main shield shape -->
  <path d="M16 2 L28 6 L28 22 L16 30 L4 22 L4 6 Z" fill="url(#shieldGradient)" stroke="#fbbf24" stroke-width="0.5"/>
  
  <!-- Top green section -->
  <path d="M6 8 L26 8 L26 12 L6 12 Z" fill="#16a34a"/>
  
  <!-- White motto banner -->
  <path d="M6 13 L26 13 L26 15 L6 15 Z" fill="white"/>
  
  <!-- Blue section with airplane -->
  <path d="M6 16 L26 16 L26 28 L6 28 Z" fill="#3b82f6"/>
  
  <!-- Airplane silhouette -->
  <path d="M12 20 L20 20 L19 22 L21 22 L20 24 L18 24 L17 26 L15 26 L14 24 L12 24 L13 22 L15 22 Z" fill="white"/>
  
  <!-- Yellow bottom banner -->
  <path d="M6 29 L26 29 L26 30 L6 30 Z" fill="#fbbf24"/>
</svg>
